<?xml version="1.0" encoding="utf-8"?>
<!-- Generator: Adobe Illustrator 17.1.0, SVG Export Plug-In . SVG Version: 6.00 Build 0)  -->
<!DOCTYPE svg PUBLIC "-//W3C//DTD SVG 1.1//EN" "http://www.w3.org/Graphics/SVG/1.1/DTD/svg11.dtd">
<svg version="1.1" id="Layer_1" xmlns="http://www.w3.org/2000/svg" xmlns:xlink="http://www.w3.org/1999/xlink" x="0px" y="0px"
	 viewBox="0 0 325 92" enable-background="new 0 0 325 92" xml:space="preserve">
<path fill="#51B5AF" d="M95.493,43.136c-0.47-0.31-1.19-0.47-2.14-0.47h-1.39v4.2h1.46c0.98,0,1.68-0.18,2.12-0.55
	c0.44-0.36,0.66-0.9,0.66-1.61C96.203,43.976,95.973,43.456,95.493,43.136z M95.493,43.136c-0.47-0.31-1.19-0.47-2.14-0.47h-1.39
	v4.2h1.46c0.98,0,1.68-0.18,2.12-0.55c0.44-0.36,0.66-0.9,0.66-1.61C96.203,43.976,95.973,43.456,95.493,43.136z M95.493,43.136
	c-0.47-0.31-1.19-0.47-2.14-0.47h-1.39v4.2h1.46c0.98,0,1.68-0.18,2.12-0.55c0.44-0.36,0.66-0.9,0.66-1.61
	C96.203,43.976,95.973,43.456,95.493,43.136z M95.493,43.136c-0.47-0.31-1.19-0.47-2.14-0.47h-1.39v4.2h1.46
	c0.98,0,1.68-0.18,2.12-0.55c0.44-0.36,0.66-0.9,0.66-1.61C96.203,43.976,95.973,43.456,95.493,43.136z M95.493,43.136
	c-0.47-0.31-1.19-0.47-2.14-0.47h-1.39v4.2h1.46c0.98,0,1.68-0.18,2.12-0.55c0.44-0.36,0.66-0.9,0.66-1.61
	C96.203,43.976,95.973,43.456,95.493,43.136z M95.493,43.136c-0.47-0.31-1.19-0.47-2.14-0.47h-1.39v4.2h1.46
	c0.98,0,1.68-0.18,2.12-0.55c0.44-0.36,0.66-0.9,0.66-1.61C96.203,43.976,95.973,43.456,95.493,43.136z M95.493,43.136
	c-0.47-0.31-1.19-0.47-2.14-0.47h-1.39v4.2h1.46c0.98,0,1.68-0.18,2.12-0.55c0.44-0.36,0.66-0.9,0.66-1.61
	C96.203,43.976,95.973,43.456,95.493,43.136z M95.493,43.136c-0.47-0.31-1.19-0.47-2.14-0.47h-1.39v4.2h1.46
	c0.98,0,1.68-0.18,2.12-0.55c0.44-0.36,0.66-0.9,0.66-1.61C96.203,43.976,95.973,43.456,95.493,43.136z M95.493,43.136
	c-0.47-0.31-1.19-0.47-2.14-0.47h-1.39v4.2h1.46c0.98,0,1.68-0.18,2.12-0.55c0.44-0.36,0.66-0.9,0.66-1.61
	C96.203,43.976,95.973,43.456,95.493,43.136z M95.493,43.136c-0.47-0.31-1.19-0.47-2.14-0.47h-1.39v4.2h1.46
	c0.98,0,1.68-0.18,2.12-0.55c0.44-0.36,0.66-0.9,0.66-1.61C96.203,43.976,95.973,43.456,95.493,43.136z M95.493,43.136
	c-0.47-0.31-1.19-0.47-2.14-0.47h-1.39v4.2h1.46c0.98,0,1.68-0.18,2.12-0.55c0.44-0.36,0.66-0.9,0.66-1.61
	C96.203,43.976,95.973,43.456,95.493,43.136z M95.493,43.136c-0.47-0.31-1.19-0.47-2.14-0.47h-1.39v4.2h1.46
	c0.98,0,1.68-0.18,2.12-0.55c0.44-0.36,0.66-0.9,0.66-1.61C96.203,43.976,95.973,43.456,95.493,43.136z M95.493,43.136
	c-0.47-0.31-1.19-0.47-2.14-0.47h-1.39v4.2h1.46c0.98,0,1.68-0.18,2.12-0.55c0.44-0.36,0.66-0.9,0.66-1.61
	C96.203,43.976,95.973,43.456,95.493,43.136z M165.733,43.136c-0.47-0.31-1.19-0.47-2.14-0.47h-1.39v4.2h1.46
	c0.98,0,1.69-0.18,2.13-0.55c0.44-0.36,0.66-0.9,0.66-1.61C166.453,43.976,166.213,43.456,165.733,43.136z M165.733,43.136
	c-0.47-0.31-1.19-0.47-2.14-0.47h-1.39v4.2h1.46c0.98,0,1.69-0.18,2.13-0.55c0.44-0.36,0.66-0.9,0.66-1.61
	C166.453,43.976,166.213,43.456,165.733,43.136z M95.493,43.136c-0.47-0.31-1.19-0.47-2.14-0.47h-1.39v4.2h1.46
	c0.98,0,1.68-0.18,2.12-0.55c0.44-0.36,0.66-0.9,0.66-1.61C96.203,43.976,95.973,43.456,95.493,43.136z M95.493,43.136
	c-0.47-0.31-1.19-0.47-2.14-0.47h-1.39v4.2h1.46c0.98,0,1.68-0.18,2.12-0.55c0.44-0.36,0.66-0.9,0.66-1.61
	C96.203,43.976,95.973,43.456,95.493,43.136z M165.733,43.136c-0.47-0.31-1.19-0.47-2.14-0.47h-1.39v4.2h1.46
	c0.98,0,1.69-0.18,2.13-0.55c0.44-0.36,0.66-0.9,0.66-1.61C166.453,43.976,166.213,43.456,165.733,43.136z M165.733,43.136
	c-0.47-0.31-1.19-0.47-2.14-0.47h-1.39v4.2h1.46c0.98,0,1.69-0.18,2.13-0.55c0.44-0.36,0.66-0.9,0.66-1.61
	C166.453,43.976,166.213,43.456,165.733,43.136z M95.493,43.136c-0.47-0.31-1.19-0.47-2.14-0.47h-1.39v4.2h1.46
	c0.98,0,1.68-0.18,2.12-0.55c0.44-0.36,0.66-0.9,0.66-1.61C96.203,43.976,95.973,43.456,95.493,43.136z M95.493,43.136
	c-0.47-0.31-1.19-0.47-2.14-0.47h-1.39v4.2h1.46c0.98,0,1.68-0.18,2.12-0.55c0.44-0.36,0.66-0.9,0.66-1.61
	C96.203,43.976,95.973,43.456,95.493,43.136z M165.733,43.136c-0.47-0.31-1.19-0.47-2.14-0.47h-1.39v4.2h1.46
	c0.98,0,1.69-0.18,2.13-0.55c0.44-0.36,0.66-0.9,0.66-1.61C166.453,43.976,166.213,43.456,165.733,43.136z M165.733,43.136
	c-0.47-0.31-1.19-0.47-2.14-0.47h-1.39v4.2h1.46c0.98,0,1.69-0.18,2.13-0.55c0.44-0.36,0.66-0.9,0.66-1.61
	C166.453,43.976,166.213,43.456,165.733,43.136z M95.493,43.136c-0.47-0.31-1.19-0.47-2.14-0.47h-1.39v4.2h1.46
	c0.98,0,1.68-0.18,2.12-0.55c0.44-0.36,0.66-0.9,0.66-1.61C96.203,43.976,95.973,43.456,95.493,43.136z M95.493,43.136
	c-0.47-0.31-1.19-0.47-2.14-0.47h-1.39v4.2h1.46c0.98,0,1.68-0.18,2.12-0.55c0.44-0.36,0.66-0.9,0.66-1.61
	C96.203,43.976,95.973,43.456,95.493,43.136z M165.733,43.136c-0.47-0.31-1.19-0.47-2.14-0.47h-1.39v4.2h1.46
	c0.98,0,1.69-0.18,2.13-0.55c0.44-0.36,0.66-0.9,0.66-1.61C166.453,43.976,166.213,43.456,165.733,43.136z M165.733,43.136
	c-0.47-0.31-1.19-0.47-2.14-0.47h-1.39v4.2h1.46c0.98,0,1.69-0.18,2.13-0.55c0.44-0.36,0.66-0.9,0.66-1.61
	C166.453,43.976,166.213,43.456,165.733,43.136z M95.493,43.136c-0.47-0.31-1.19-0.47-2.14-0.47h-1.39v4.2h1.46
	c0.98,0,1.68-0.18,2.12-0.55c0.44-0.36,0.66-0.9,0.66-1.61C96.203,43.976,95.973,43.456,95.493,43.136z M95.493,43.136
	c-0.47-0.31-1.19-0.47-2.14-0.47h-1.39v4.2h1.46c0.98,0,1.68-0.18,2.12-0.55c0.44-0.36,0.66-0.9,0.66-1.61
	C96.203,43.976,95.973,43.456,95.493,43.136z M165.733,43.136c-0.47-0.31-1.19-0.47-2.14-0.47h-1.39v4.2h1.46
	c0.98,0,1.69-0.18,2.13-0.55c0.44-0.36,0.66-0.9,0.66-1.61C166.453,43.976,166.213,43.456,165.733,43.136z M165.733,43.136
	c-0.47-0.31-1.19-0.47-2.14-0.47h-1.39v4.2h1.46c0.98,0,1.69-0.18,2.13-0.55c0.44-0.36,0.66-0.9,0.66-1.61
	C166.453,43.976,166.213,43.456,165.733,43.136z M95.493,43.136c-0.47-0.31-1.19-0.47-2.14-0.47h-1.39v4.2h1.46
	c0.98,0,1.68-0.18,2.12-0.55c0.44-0.36,0.66-0.9,0.66-1.61C96.203,43.976,95.973,43.456,95.493,43.136z M317.803-0.004H7.203
	c-3.98,0-7.2,3.23-7.2,7.2v77.6c0,3.98,3.22,7.2,7.2,7.2h310.6c3.97,0,7.2-3.22,7.2-7.2v-77.6
	C325.003,3.226,321.773-0.004,317.803-0.004z M59.243,70.346c-1.27,0.24-1.72-0.54-1.72-1.21c0-0.82,0.03-3.51,0.03-6.86
	c0-2.33-0.8-3.85-1.7-4.63c5.57-0.62,11.42-2.73,11.42-12.34c0-2.73-0.97-4.96-2.57-6.7c0.26-0.64,1.12-3.18-0.25-6.62
	c0,0-2.09-0.67-6.87,2.56c-1.99-0.55-4.13-0.83-6.26-0.84c-2.12,0.01-4.26,0.29-6.26,0.84c-4.77-3.23-6.87-2.56-6.87-2.56
	c-1.36,3.44-0.51,5.98-0.25,6.62c-1.6,1.74-2.57,3.97-2.57,6.7c0,9.59,5.84,11.73,11.39,12.36c-0.72,0.63-1.36,1.73-1.59,3.35
	c-1.42,0.64-5.05,1.74-7.28-2.08c0,0-1.32-2.4-3.83-2.58c0,0-2.44-0.03-0.17,1.52c0,0,1.64,0.77,2.78,3.66c0,0,1.47,4.86,8.42,3.35
	c0.01,2.09,0.03,3.66,0.03,4.25c0,0.67-0.45,1.44-1.7,1.21c-9.94-3.31-17.1-12.68-17.1-23.73c0-13.81,11.19-25,25-25
	s25.01,11.19,25.01,25C76.333,57.666,69.173,67.026,59.243,70.346z M97.113,53.736l-3.08-5.13h-2.07v5.13h-2.1v-12.85h3.63
	c1.66,0,2.88,0.31,3.68,0.93c0.8,0.62,1.2,1.56,1.2,2.82c0,1.6-0.84,2.73-2.5,3.41l3.63,5.69H97.113z M108.633,42.666h-5.17v3.49
	h4.85v1.76h-4.85v4.04h5.17v1.78h-7.27v-12.85h7.27V42.666z M121.393,53.216c-0.77,0.25-1.51,0.43-2.22,0.54
	c-0.72,0.1-1.49,0.16-2.31,0.16c-1.95,0-3.45-0.58-4.5-1.73c-1.06-1.15-1.58-2.78-1.58-4.87c0-2.07,0.59-3.69,1.78-4.86
	s2.83-1.75,4.91-1.75c1.34,0,2.62,0.25,3.82,0.77l-0.74,1.75c-1.04-0.48-2.09-0.72-3.13-0.72c-1.37,0-2.45,0.43-3.25,1.29
	c-0.8,0.86-1.2,2.04-1.2,3.53c0,1.57,0.36,2.77,1.08,3.59c0.72,0.81,1.75,1.22,3.1,1.22c0.68,0,1.4-0.08,2.18-0.25v-3.32h-2.67v-1.8
	h4.73V53.216z M126.583,53.736h-2.1v-12.85h2.1V53.736z M136.143,52.936c-0.83,0.65-1.96,0.98-3.42,0.98
	c-1.45,0-2.64-0.23-3.57-0.68v-1.99c0.59,0.28,1.21,0.5,1.87,0.65c0.66,0.16,1.27,0.24,1.84,0.24c0.83,0,1.45-0.16,1.84-0.47
	c0.4-0.32,0.6-0.74,0.6-1.28c0-0.48-0.18-0.89-0.55-1.22c-0.36-0.33-1.11-0.73-2.25-1.19c-1.17-0.47-2-1.01-2.48-1.62
	c-0.48-0.61-0.72-1.34-0.72-2.2c0-1.07,0.38-1.91,1.15-2.53c0.76-0.62,1.78-0.92,3.06-0.92c1.23,0,2.46,0.27,3.68,0.81l-0.67,1.71
	c-1.14-0.48-2.16-0.72-3.06-0.72c-0.68,0-1.19,0.15-1.55,0.44c-0.35,0.3-0.52,0.69-0.52,1.18c0,0.33,0.07,0.62,0.21,0.85
	c0.14,0.24,0.37,0.46,0.69,0.68c0.32,0.21,0.9,0.48,1.74,0.83c0.95,0.39,1.64,0.76,2.08,1.1c0.44,0.34,0.76,0.72,0.96,1.15
	c0.21,0.43,0.31,0.93,0.31,1.51C137.383,51.386,136.973,52.286,136.143,52.936z M148.093,42.686h-3.78v11.05h-2.1v-11.05h-3.78v-1.8
	h9.66V42.686z M157.323,42.666h-5.17v3.49h4.85v1.76h-4.85v4.04h5.17v1.78h-7.27v-12.85h7.27V42.666z M167.353,53.736l-3.07-5.13
	h-2.08v5.13h-2.1v-12.85h3.63c1.66,0,2.89,0.31,3.68,0.93c0.8,0.62,1.2,1.56,1.2,2.82c0,1.6-0.83,2.73-2.5,3.41l3.63,5.69H167.353z
	 M188.143,53.736h-2.29l-2.18-7.66c-0.09-0.34-0.21-0.82-0.35-1.45s-0.22-1.07-0.25-1.31c-0.06,0.37-0.16,0.86-0.29,1.46
	c-0.13,0.59-0.24,1.04-0.33,1.33l-2.13,7.63h-2.28l-1.66-6.43l-1.69-6.42h2.14l1.84,7.49c0.29,1.2,0.49,2.26,0.62,3.18
	c0.06-0.5,0.16-1.05,0.29-1.67c0.13-0.61,0.24-1.11,0.35-1.49l2.09-7.51h2.08l2.15,7.54c0.2,0.7,0.42,1.74,0.65,3.13
	c0.09-0.84,0.3-1.9,0.63-3.2l1.83-7.47h2.13L188.143,53.736z M195.413,53.736h-2.11v-12.85h2.11V53.736z M207.023,42.686h-3.78
	v11.05h-2.1v-11.05h-3.78v-1.8h9.66V42.686z M219.123,53.736h-2.11v-5.79h-5.92v5.79h-2.11v-12.85h2.11v5.26h5.92v-5.26h2.11V53.736
	z M237.163,53.216c-0.77,0.25-1.51,0.43-2.23,0.54c-0.71,0.1-1.48,0.16-2.3,0.16c-1.95,0-3.45-0.58-4.5-1.73
	c-1.06-1.15-1.59-2.78-1.59-4.87c0-2.07,0.6-3.69,1.79-4.86s2.83-1.75,4.91-1.75c1.34,0,2.62,0.25,3.82,0.77l-0.74,1.75
	c-1.04-0.48-2.09-0.72-3.13-0.72c-1.37,0-2.46,0.43-3.25,1.29c-0.8,0.86-1.2,2.04-1.2,3.53c0,1.57,0.36,2.77,1.08,3.59
	c0.72,0.81,1.75,1.22,3.1,1.22c0.68,0,1.4-0.08,2.18-0.25v-3.32h-2.67v-1.8h4.73V53.216z M242.353,53.736h-2.1v-12.85h2.1V53.736z
	 M253.963,42.686h-3.78v11.05h-2.1v-11.05h-3.78v-1.8h9.66V42.686z M266.063,53.736h-2.11v-5.79h-5.92v5.79h-2.1v-12.85h2.1v5.26
	h5.92v-5.26h2.11V53.736z M279.523,49.206c0,0.95-0.21,1.78-0.61,2.49c-0.41,0.71-1,1.26-1.77,1.64c-0.77,0.38-1.69,0.58-2.76,0.58
	c-1.6,0-2.84-0.42-3.72-1.27c-0.89-0.84-1.33-2-1.33-3.48v-8.28h2.11v8.13c0,1.06,0.25,1.84,0.74,2.35c0.49,0.5,1.25,0.75,2.27,0.75
	c1.98,0,2.97-1.04,2.97-3.12v-8.11h2.1V49.206z M290.813,52.756c-0.81,0.65-1.93,0.98-3.36,0.98h-4.65v-12.85h3.82
	c1.77,0,3.05,0.26,3.84,0.77c0.78,0.52,1.18,1.34,1.18,2.45c0,0.75-0.2,1.37-0.58,1.87c-0.39,0.5-0.95,0.81-1.67,0.94v0.09
	c0.9,0.17,1.56,0.5,1.99,1c0.42,0.51,0.64,1.18,0.64,2.04C292.023,51.196,291.613,52.106,290.813,52.756z M289.123,48.386
	c-0.46-0.32-1.16-0.48-2.09-0.48h-2.13v4.06h2.24c0.88,0,1.54-0.16,1.99-0.5c0.45-0.34,0.67-0.87,0.67-1.6
	C289.803,49.206,289.573,48.706,289.123,48.386z M288.853,45.776c0.41-0.28,0.61-0.75,0.61-1.42c0-0.6-0.22-1.04-0.66-1.31
	c-0.43-0.27-1.13-0.4-2.08-0.4h-1.82v3.55h2.03C287.803,46.196,288.453,46.056,288.853,45.776z M165.733,43.136
	c-0.47-0.31-1.19-0.47-2.14-0.47h-1.39v4.2h1.46c0.98,0,1.69-0.18,2.13-0.55c0.44-0.36,0.66-0.9,0.66-1.61
	C166.453,43.976,166.213,43.456,165.733,43.136z M95.493,43.136c-0.47-0.31-1.19-0.47-2.14-0.47h-1.39v4.2h1.46
	c0.98,0,1.68-0.18,2.12-0.55c0.44-0.36,0.66-0.9,0.66-1.61C96.203,43.976,95.973,43.456,95.493,43.136z M95.493,43.136
	c-0.47-0.31-1.19-0.47-2.14-0.47h-1.39v4.2h1.46c0.98,0,1.68-0.18,2.12-0.55c0.44-0.36,0.66-0.9,0.66-1.61
	C96.203,43.976,95.973,43.456,95.493,43.136z M165.733,43.136c-0.47-0.31-1.19-0.47-2.14-0.47h-1.39v4.2h1.46
	c0.98,0,1.69-0.18,2.13-0.55c0.44-0.36,0.66-0.9,0.66-1.61C166.453,43.976,166.213,43.456,165.733,43.136z M165.733,43.136
	c-0.47-0.31-1.19-0.47-2.14-0.47h-1.39v4.2h1.46c0.98,0,1.69-0.18,2.13-0.55c0.44-0.36,0.66-0.9,0.66-1.61
	C166.453,43.976,166.213,43.456,165.733,43.136z M95.493,43.136c-0.47-0.31-1.19-0.47-2.14-0.47h-1.39v4.2h1.46
	c0.98,0,1.68-0.18,2.12-0.55c0.44-0.36,0.66-0.9,0.66-1.61C96.203,43.976,95.973,43.456,95.493,43.136z M95.493,43.136
	c-0.47-0.31-1.19-0.47-2.14-0.47h-1.39v4.2h1.46c0.98,0,1.68-0.18,2.12-0.55c0.44-0.36,0.66-0.9,0.66-1.61
	C96.203,43.976,95.973,43.456,95.493,43.136z M165.733,43.136c-0.47-0.31-1.19-0.47-2.14-0.47h-1.39v4.2h1.46
	c0.98,0,1.69-0.18,2.13-0.55c0.44-0.36,0.66-0.9,0.66-1.61C166.453,43.976,166.213,43.456,165.733,43.136z M165.733,43.136
	c-0.47-0.31-1.19-0.47-2.14-0.47h-1.39v4.2h1.46c0.98,0,1.69-0.18,2.13-0.55c0.44-0.36,0.66-0.9,0.66-1.61
	C166.453,43.976,166.213,43.456,165.733,43.136z M95.493,43.136c-0.47-0.31-1.19-0.47-2.14-0.47h-1.39v4.2h1.46
	c0.98,0,1.68-0.18,2.12-0.55c0.44-0.36,0.66-0.9,0.66-1.61C96.203,43.976,95.973,43.456,95.493,43.136z M95.493,43.136
	c-0.47-0.31-1.19-0.47-2.14-0.47h-1.39v4.2h1.46c0.98,0,1.68-0.18,2.12-0.55c0.44-0.36,0.66-0.9,0.66-1.61
	C96.203,43.976,95.973,43.456,95.493,43.136z M165.733,43.136c-0.47-0.31-1.19-0.47-2.14-0.47h-1.39v4.2h1.46
	c0.98,0,1.69-0.18,2.13-0.55c0.44-0.36,0.66-0.9,0.66-1.61C166.453,43.976,166.213,43.456,165.733,43.136z M165.733,43.136
	c-0.47-0.31-1.19-0.47-2.14-0.47h-1.39v4.2h1.46c0.98,0,1.69-0.18,2.13-0.55c0.44-0.36,0.66-0.9,0.66-1.61
	C166.453,43.976,166.213,43.456,165.733,43.136z M95.493,43.136c-0.47-0.31-1.19-0.47-2.14-0.47h-1.39v4.2h1.46
	c0.98,0,1.68-0.18,2.12-0.55c0.44-0.36,0.66-0.9,0.66-1.61C96.203,43.976,95.973,43.456,95.493,43.136z M95.493,43.136
	c-0.47-0.31-1.19-0.47-2.14-0.47h-1.39v4.2h1.46c0.98,0,1.68-0.18,2.12-0.55c0.44-0.36,0.66-0.9,0.66-1.61
	C96.203,43.976,95.973,43.456,95.493,43.136z M165.733,43.136c-0.47-0.31-1.19-0.47-2.14-0.47h-1.39v4.2h1.46
	c0.98,0,1.69-0.18,2.13-0.55c0.44-0.36,0.66-0.9,0.66-1.61C166.453,43.976,166.213,43.456,165.733,43.136z M165.733,43.136
	c-0.47-0.31-1.19-0.47-2.14-0.47h-1.39v4.2h1.46c0.98,0,1.69-0.18,2.13-0.55c0.44-0.36,0.66-0.9,0.66-1.61
	C166.453,43.976,166.213,43.456,165.733,43.136z M95.493,43.136c-0.47-0.31-1.19-0.47-2.14-0.47h-1.39v4.2h1.46
	c0.98,0,1.68-0.18,2.12-0.55c0.44-0.36,0.66-0.9,0.66-1.61C96.203,43.976,95.973,43.456,95.493,43.136z M95.493,43.136
	c-0.47-0.31-1.19-0.47-2.14-0.47h-1.39v4.2h1.46c0.98,0,1.68-0.18,2.12-0.55c0.44-0.36,0.66-0.9,0.66-1.61
	C96.203,43.976,95.973,43.456,95.493,43.136z M165.733,43.136c-0.47-0.31-1.19-0.47-2.14-0.47h-1.39v4.2h1.46
	c0.98,0,1.69-0.18,2.13-0.55c0.44-0.36,0.66-0.9,0.66-1.61C166.453,43.976,166.213,43.456,165.733,43.136z M165.733,43.136
	c-0.47-0.31-1.19-0.47-2.14-0.47h-1.39v4.2h1.46c0.98,0,1.69-0.18,2.13-0.55c0.44-0.36,0.66-0.9,0.66-1.61
	C166.453,43.976,166.213,43.456,165.733,43.136z M95.493,43.136c-0.47-0.31-1.19-0.47-2.14-0.47h-1.39v4.2h1.46
	c0.98,0,1.68-0.18,2.12-0.55c0.44-0.36,0.66-0.9,0.66-1.61C96.203,43.976,95.973,43.456,95.493,43.136z M95.493,43.136
	c-0.47-0.31-1.19-0.47-2.14-0.47h-1.39v4.2h1.46c0.98,0,1.68-0.18,2.12-0.55c0.44-0.36,0.66-0.9,0.66-1.61
	C96.203,43.976,95.973,43.456,95.493,43.136z M95.493,43.136c-0.47-0.31-1.19-0.47-2.14-0.47h-1.39v4.2h1.46
	c0.98,0,1.68-0.18,2.12-0.55c0.44-0.36,0.66-0.9,0.66-1.61C96.203,43.976,95.973,43.456,95.493,43.136z M95.493,43.136
	c-0.47-0.31-1.19-0.47-2.14-0.47h-1.39v4.2h1.46c0.98,0,1.68-0.18,2.12-0.55c0.44-0.36,0.66-0.9,0.66-1.61
	C96.203,43.976,95.973,43.456,95.493,43.136z M95.493,43.136c-0.47-0.31-1.19-0.47-2.14-0.47h-1.39v4.2h1.46
	c0.98,0,1.68-0.18,2.12-0.55c0.44-0.36,0.66-0.9,0.66-1.61C96.203,43.976,95.973,43.456,95.493,43.136z M95.493,43.136
	c-0.47-0.31-1.19-0.47-2.14-0.47h-1.39v4.2h1.46c0.98,0,1.68-0.18,2.12-0.55c0.44-0.36,0.66-0.9,0.66-1.61
	C96.203,43.976,95.973,43.456,95.493,43.136z M95.493,43.136c-0.47-0.31-1.19-0.47-2.14-0.47h-1.39v4.2h1.46
	c0.98,0,1.68-0.18,2.12-0.55c0.44-0.36,0.66-0.9,0.66-1.61C96.203,43.976,95.973,43.456,95.493,43.136z M95.493,43.136
	c-0.47-0.31-1.19-0.47-2.14-0.47h-1.39v4.2h1.46c0.98,0,1.68-0.18,2.12-0.55c0.44-0.36,0.66-0.9,0.66-1.61
	C96.203,43.976,95.973,43.456,95.493,43.136z M95.493,43.136c-0.47-0.31-1.19-0.47-2.14-0.47h-1.39v4.2h1.46
	c0.98,0,1.68-0.18,2.12-0.55c0.44-0.36,0.66-0.9,0.66-1.61C96.203,43.976,95.973,43.456,95.493,43.136z M95.493,43.136
	c-0.47-0.31-1.19-0.47-2.14-0.47h-1.39v4.2h1.46c0.98,0,1.68-0.18,2.12-0.55c0.44-0.36,0.66-0.9,0.66-1.61
	C96.203,43.976,95.973,43.456,95.493,43.136z M95.493,43.136c-0.47-0.31-1.19-0.47-2.14-0.47h-1.39v4.2h1.46
	c0.98,0,1.68-0.18,2.12-0.55c0.44-0.36,0.66-0.9,0.66-1.61C96.203,43.976,95.973,43.456,95.493,43.136z M95.493,43.136
	c-0.47-0.31-1.19-0.47-2.14-0.47h-1.39v4.2h1.46c0.98,0,1.68-0.18,2.12-0.55c0.44-0.36,0.66-0.9,0.66-1.61
	C96.203,43.976,95.973,43.456,95.493,43.136z M95.493,43.136c-0.47-0.31-1.19-0.47-2.14-0.47h-1.39v4.2h1.46
	c0.98,0,1.68-0.18,2.12-0.55c0.44-0.36,0.66-0.9,0.66-1.61C96.203,43.976,95.973,43.456,95.493,43.136z"/>
</svg>
