<?xml version="1.0" encoding="utf-8"?>
<!-- Generator: Adobe Illustrator 17.1.0, SVG Export Plug-In . SVG Version: 6.00 Build 0)  -->
<!DOCTYPE svg PUBLIC "-//W3C//DTD SVG 1.1//EN" "http://www.w3.org/Graphics/SVG/1.1/DTD/svg11.dtd">
<svg version="1.1" id="Layer_1" xmlns="http://www.w3.org/2000/svg" xmlns:xlink="http://www.w3.org/1999/xlink" x="0px" y="0px"
	 viewBox="0 0 27.125 27.125" enable-background="new 0 0 27.125 27.125" xml:space="preserve">
<g>
	
		<circle opacity="0.75" fill="none" stroke="#FFFFFF" stroke-width="1.5" stroke-miterlimit="10" cx="13.562" cy="13.562" r="12.812"/>
	<g>
		<path opacity="0.75" fill="#FFFFFF" d="M10.468,7.89c1.026-0.464,1.944-0.695,2.756-0.695c1.095,0,1.941,0.246,2.538,0.739
			c0.597,0.493,0.895,1.22,0.895,2.182c0,0.997-0.646,2.031-1.939,3.103c-0.562,0.464-0.906,0.772-1.03,0.926
			c-0.125,0.153-0.225,0.34-0.3,0.561c-0.075,0.22-0.113,0.496-0.113,0.826v0.478h-1.191v-0.495c0-1.009,0.322-1.794,0.965-2.356
			l1.147-1.008c0.371-0.313,0.643-0.63,0.817-0.952c0.174-0.322,0.261-0.665,0.261-1.03c0-0.603-0.191-1.065-0.574-1.387
			c-0.382-0.322-0.904-0.482-1.565-0.482c-0.597,0-1.35,0.214-2.26,0.643L10.468,7.89z M12.832,17.705
			c0.307,0,0.565,0.104,0.774,0.313c0.209,0.209,0.313,0.466,0.313,0.774c0,0.313-0.106,0.581-0.317,0.804
			c-0.211,0.223-0.468,0.335-0.769,0.335c-0.296,0-0.548-0.111-0.756-0.335c-0.209-0.223-0.313-0.491-0.313-0.804
			c0-0.313,0.103-0.572,0.309-0.778C12.277,17.808,12.531,17.705,12.832,17.705z"/>
	</g>
</g>
</svg>
