<?xml version="1.0"?><svg width="421.61707" height="569.62811" xmlns="http://www.w3.org/2000/svg" xmlns:xlink="http://www.w3.org/1999/xlink">
 <title>Magnifying Glass</title>
 <defs>
  <linearGradient id="linearGradient3179">
   <stop stop-color="#ffffff" id="stop3181" offset="0"/>
   <stop stop-color="#ffffff" stop-opacity="0" id="stop3183" offset="1"/>
  </linearGradient>
  <linearGradient gradientTransform="matrix(0.9988964,0,0,1.6012466,0.4794658,-56.958355)" gradientUnits="userSpaceOnUse" y2="96.663193" x2="95.459419" y1="122.21932" x1="95.459419" id="linearGradient3185" xlink:href="#linearGradient3179"/>
  <linearGradient gradientTransform="matrix(0.9988964,0,0,1.6012466,144.32055,-56.958355)" y2="96.663193" x2="95.459419" y1="122.21932" x1="95.459419" gradientUnits="userSpaceOnUse" id="linearGradient3195" xlink:href="#linearGradient3179"/>
  <linearGradient y2="96.663193" x2="95.459419" y1="122.21932" x1="95.459419" gradientTransform="matrix(0.9988964,0,0,1.6012466,272.17929,-56.958355)" gradientUnits="userSpaceOnUse" id="linearGradient3209" xlink:href="#linearGradient3179"/>
  <linearGradient y2="96.663193" x2="95.459419" y1="122.21932" x1="95.459419" gradientTransform="matrix(0.9988964,0,0,1.6012466,394.04465,-56.958355)" gradientUnits="userSpaceOnUse" id="linearGradient3219" xlink:href="#linearGradient3179"/>
  <linearGradient y2="96.663193" x2="95.459419" y1="122.21932" x1="95.459419" gradientTransform="matrix(0.9988964,0,0,1.6012466,541.88131,-56.958355)" gradientUnits="userSpaceOnUse" id="linearGradient3229" xlink:href="#linearGradient3179"/>
  <linearGradient y2="96.663193" x2="95.459419" y1="122.21932" x1="95.459419" gradientTransform="matrix(0.9988964,0,0,1.6012466,677.73122,-56.958355)" gradientUnits="userSpaceOnUse" id="linearGradient3243" xlink:href="#linearGradient3179"/>
  <linearGradient y2="96.663193" x2="95.459419" y1="122.21932" x1="95.459419" gradientTransform="matrix(0.9988964,0,0,1.6012466,24.479466,539.04165)" gradientUnits="userSpaceOnUse" id="linearGradient7325" xlink:href="#linearGradient3179"/>
 </defs>
 <metadata id="metadata7">image/svg+xmlMagnifying Glass</metadata>
 <g>
  <title>Layer 1</title>
  <g externalResourcesRequired="false" transform="matrix(2.72802 -1.57503 1.57503 2.72802 -4092.23 1189.35)" id="g2859">
   <path fill="#ffffff" d="m1333.360107,342.352142c-29.255981,0 -53,23.744049 -53,53c0,25.980255 18.725098,47.60614 43.40625,52.125031c-0.185303,4.039795 -3.90625,85.128357 -3.90625,85.249939c0,3.656982 6.043823,6.625 13.5,6.625c7.456177,0 13.5,-2.968018 13.5,-6.625l-3.90625,-85.249939c24.681152,-4.51889 43.40625,-26.144745 43.40625,-52.125031c0,-29.256012 -23.744019,-53 -53,-53zm0,8c24.839966,0 45,20.160034 45,45c0,24.839996 -20.160034,45 -45,45c-24.839966,0 -45,-20.160004 -45,-45c0,-24.839966 20.160034,-45 45,-45z" id="path2841"/>
  </g>
 </g>
</svg>
