<?xml version="1.0" encoding="utf-8"?>
<!-- Generator: Adobe Illustrator 16.0.0, SVG Export Plug-In . SVG Version: 6.00 Build 0)  -->
<!DOCTYPE svg PUBLIC "-//W3C//DTD SVG 1.1//EN" "http://www.w3.org/Graphics/SVG/1.1/DTD/svg11.dtd">
<svg version="1.1" id="Layer_1" xmlns="http://www.w3.org/2000/svg" xmlns:xlink="http://www.w3.org/1999/xlink" x="0px" y="0px"
	 width="617.408px" height="204.087px" viewBox="10.97 130.503 617.408 204.087"
	 enable-background="new 10.97 130.503 617.408 204.087" xml:space="preserve">
<g>
	<polygon fill="#546475" points="628.378,130.503 628.378,283.915 410.633,283.915 410.633,334.591 352.139,283.915 
		122.516,283.915 122.516,130.503 	"/>
	<g>
		<rect x="10.97" y="130.503" fill="#3C4A5B" width="111.545" height="153.412"/>
	</g>
	<g>
		<g>
			<path opacity="0.3" fill="#FFFFFF" enable-background="new    " d="M74.03,232.093H47.136v-5.184h10.837v-39.726l-10.221,5.111
				v-5.944l11.055-5.69h5.111v46.25H74.03L74.03,232.093L74.03,232.093z"/>
			<path fill="#51B5AF" d="M213.323,232.093h-7.431l-15.006-23.234h-6.597v23.234h-5.944V180.95h14.462
				c4.857,0,8.692,1.177,11.507,3.535c2.815,2.354,4.224,5.635,4.224,9.839c0,3.117-1.027,5.891-3.081,8.317
				c-2.054,2.431-4.881,4.079-8.481,4.949L213.323,232.093z M184.29,203.676h7.503c3.141,0,5.69-0.851,7.648-2.556
				c1.957-1.701,2.936-3.847,2.936-6.433c0-5.703-3.48-8.554-10.438-8.554h-7.648V203.676z"/>
			<path fill="#51B5AF" d="M251.308,232.093h-26.713V180.95h26.496v5.183h-20.552v15.839h19.754v5.184h-19.754v19.753h20.769
				L251.308,232.093L251.308,232.093z"/>
			<path fill="#DA6869" d="M296.253,186.133h-21.167v16.709h19.283v5.183h-19.283v24.068h-5.944V180.95h27.111V186.133z"/>
			<path fill="#DA6869" d="M347.033,232.093h-6.234l-5.654-17.906h-16.781l-5.727,17.906h-6.162l16.709-51.143h7.141
				L347.033,232.093z M333.441,209.004l-6.705-21.167l-6.669,21.167H333.441z"/>
			<path fill="#DA6869" d="M387.77,228.902c-4.012,2.779-8.661,4.168-13.947,4.168c-6.624,0-11.654-2.271-15.101-6.814
				c-3.441-4.543-5.164-11.115-5.164-19.718c0-8.312,1.667-14.817,5.002-19.518c3.335-4.699,8.421-7.051,15.262-7.051
				c2.465,0,4.9,0.314,7.316,0.942c2.416,0.628,4.359,1.462,5.838,2.501l-1.962,4.675c-3.402-1.933-7.133-2.9-11.193-2.9
				c-4.717,0-8.218,1.711-10.514,5.128c-2.295,3.422-3.443,8.827-3.443,16.221c0,14.208,4.652,21.312,13.958,21.312
				c3.935,0,7.974-1.208,12.101-3.625L387.77,228.902z"/>
			<path fill="#ACD34C" d="M434.569,185.77H418.8v46.322h-5.91V185.77h-15.837v-4.821h37.517V185.77L434.569,185.77z"/>
			<path fill="#ACD34C" d="M460.231,179.971c5.728,0,10.096,2.267,13.102,6.795c3.011,4.533,4.515,11.123,4.515,19.773
				c0,8.603-1.498,15.175-4.495,19.718c-2.996,4.542-7.37,6.814-13.121,6.814c-5.702,0-10.057-2.264-13.067-6.797
				c-3.006-4.528-4.514-11.108-4.514-19.734s1.498-15.211,4.494-19.754C450.141,182.242,454.505,179.971,460.231,179.971z
				 M460.231,227.852c7.539,0,11.309-7.104,11.309-21.312c0-14.232-3.77-21.349-11.309-21.349c-3.673,0-6.471,1.844-8.39,5.529
				c-1.924,3.686-2.88,8.958-2.88,15.82c0,6.935,0.952,12.222,2.86,15.859C453.731,226.035,456.534,227.852,460.231,227.852z"/>
			<path fill="#ACD34C" d="M525.15,232.093h-7.428l-15.011-23.234h-6.592v23.234h-5.945V180.95h14.46
				c4.857,0,8.694,1.177,11.507,3.535c2.817,2.354,4.224,5.635,4.224,9.839c0,3.117-1.029,5.891-3.078,8.317
				c-2.059,2.431-4.886,4.079-8.486,4.949L525.15,232.093z M496.12,203.676h7.5c3.142,0,5.693-0.851,7.646-2.556
				c1.963-1.701,2.938-3.847,2.938-6.433c0-5.703-3.479-8.554-10.438-8.554h-7.646V203.676L496.12,203.676z"/>
			<path fill="#ACD34C" d="M560.309,186.604c-3.044-1.039-5.93-1.559-8.66-1.559c-3.093,0-5.61,0.705-7.559,2.122
				c-1.943,1.411-2.919,3.424-2.919,6.034c0,3.093,2.552,5.811,7.65,8.155c3.769,1.739,6.263,2.948,7.485,3.625
				c1.218,0.677,2.455,1.607,3.712,2.791c1.256,1.185,2.267,2.581,3.03,4.188c0.758,1.607,1.14,3.412,1.14,5.418
				c0,4.978-1.672,8.839-5.021,11.579c-3.345,2.745-7.293,4.115-11.831,4.115c-4.402,0-8.254-0.87-11.564-2.61l1.232-5.11
				c3.89,1.764,7.287,2.646,10.188,2.646c3.378,0,6.094-0.875,8.134-2.626c2.044-1.752,3.063-4.164,3.063-7.232
				c0-2.271-0.667-4.197-1.995-5.783c-1.329-1.58-3.779-3.194-7.355-4.837c-3.673-1.692-6.046-2.847-7.124-3.46
				c-1.072-0.619-2.146-1.469-3.209-2.557c-1.062-1.087-1.885-2.307-2.465-3.661c-0.579-1.353-0.87-2.827-0.87-4.422
				c0-4.229,1.527-7.527,4.572-9.895c3.045-2.368,6.896-3.552,11.561-3.552c3.407,0,6.79,0.52,10.148,1.559L560.309,186.604z"/>
		</g>
		<circle fill="#77818C" cx="95.574" cy="207.193" r="4.949"/>
	</g>
</g>
</svg>
