<?xml version="1.0" encoding="utf-8"?>
<!-- Generator: Adobe Illustrator 17.1.0, SVG Export Plug-In . SVG Version: 6.00 Build 0)  -->
<!DOCTYPE svg PUBLIC "-//W3C//DTD SVG 1.1//EN" "http://www.w3.org/Graphics/SVG/1.1/DTD/svg11.dtd">
<svg version="1.1" id="Layer_1" xmlns="http://www.w3.org/2000/svg" xmlns:xlink="http://www.w3.org/1999/xlink" x="0px" y="0px"
	 viewBox="0 0 63.472 18.268" enable-background="new 0 0 63.472 18.268" xml:space="preserve">
<g>
	<path fill="#ACD34C" d="M63.472,2.542v13.184c0,0.174-0.018,0.348-0.048,0.51c0.006,0.006,0,0.012,0,0.012
		c-0.21,1.157-1.115,2.02-2.194,2.02H2.248c-1.091,0-1.996-0.875-2.2-2.044c-0.006-0.006-0.006-0.012-0.006-0.018
		C0.012,16.049,0,15.894,0,15.726V2.542C0,1.139,1.007,0,2.248,0H61.23C62.471,0,63.472,1.139,63.472,2.542z"/>
	<rect x="12.854" y="4.822" fill="none" width="37.769" height="8.623"/>
	<text transform="matrix(1 0 0 1 26.4323 11.3271)" fill="#FFFFFF" font-family="'Questrial-Regular'" font-size="9.2927">JS</text>
</g>
</svg>
